{
  "accessors": [
    {
      "bufferView": 2,
      "componentType": 5126,
      "count": 1329,
      "max": [
        0.13339200615882874,
        0.5335270166397095,
        0.505774974822998
      ],
      "min": [
        -0.1326570063829422,
        -0.30380600690841675,
        -0.003696999978274107
      ],
      "type": "VEC3"
    },
    {
      "bufferView": 2,
      "byteOffset": 15948,
      "componentType": 5126,
      "count": 1329,
      "max": [
        0.9998965263366699,
        0.9999983310699463,
        1.0
      ],
      "min": [
        -0.9998272657394409,
        -0.9999686479568481,
        -0.9999983310699463
      ],
      "type": "VEC3"
    },
    {
      "bufferView": 1,
      "componentType": 5126,
      "count": 1329,
      "max": [
        0.9955139756202698,
        0.9910579919815063
      ],
      "min": [
        0.009856999851763248,
        0.015168000012636185
      ],
      "type": "VEC2"
    },
    {
      "bufferView": 0,
      "componentType": 5125,
      "count": 11352,
      "type": "SCALAR"
    }
  ],
  "asset": {
    "extras": {
      "author": "ivan.vladimirov08 (https://sketchfab.com/ivan.vladimirov08)",
      "license": "CC-BY-4.0 (http://creativecommons.org/licenses/by/4.0/)",
      "source": "https://sketchfab.com/3d-models/garfield-b0600a51d13b4cb4bed00552f2b7da55",
      "title": "Garfield"
    },
    "generator": "Sketchfab-12.67.0",
    "version": "2.0"
  },
  "bufferViews": [
    {
      "buffer": 0,
      "byteLength": 45408,
      "name": "floatBufferViews",
      "target": 34963
    },
    {
      "buffer": 0,
      "byteLength": 10632,
      "byteOffset": 45408,
      "byteStride": 8,
      "name": "floatBufferViews",
      "target": 34962
    },
    {
      "buffer": 0,
      "byteLength": 31896,
      "byteOffset": 56040,
      "byteStride": 12,
      "name": "floatBufferViews",
      "target": 34962
    }
  ],
  "buffers": [
    {
      "byteLength": 87936,
      "uri": "scene.bin"
    }
  ],
  "images": [
    {
      "uri": "textures/mesh0882mat_baseColor.png"
    }
  ],
  "materials": [
    {
      "doubleSided": true,
      "name": "mesh0882mat",
      "pbrMetallicRoughness": {
        "baseColorTexture": {
          "index": 0
        },
        "metallicFactor": 0.0
      }
    }
  ],
  "meshes": [
    {
      "name": "Object_0",
      "primitives": [
        {
          "attributes": {
            "NORMAL": 1,
            "POSITION": 0,
            "TEXCOORD_0": 2
          },
          "indices": 3,
          "material": 0,
          "mode": 4
        }
      ]
    }
  ],
  "nodes": [
    {
      "children": [
        1
      ],
      "matrix": [
        1.0,
        0.0,
        0.0,
        0.0,
        0.0,
        2.220446049250313e-16,
        -1.0,
        0.0,
        0.0,
        1.0,
        2.220446049250313e-16,
        0.0,
        0.0,
        0.0,
        0.0,
        1.0
      ],
      "name": "Sketchfab_model"
    },
    {
      "children": [
        2
      ],
      "name": "garfield.obj.cleaner.materialmerger.gles"
    },
    {
      "mesh": 0,
      "name": "Object_2"
    }
  ],
  "samplers": [
    {
      "magFilter": 9729,
      "minFilter": 9987,
      "wrapS": 10497,
      "wrapT": 10497
    }
  ],
  "scene": 0,
  "scenes": [
    {
      "name": "Sketchfab_Scene",
      "nodes": [
        0
      ]
    }
  ],
  "textures": [
    {
      "sampler": 0,
      "source": 0
    }
  ]
}
